<svg width="24" height="24" viewBox="0 0 24 24" fill="none" xmlns="http://www.w3.org/2000/svg">
<path d="M3.4 11.3179C3.4 11.0299 3.4 10.8858 3.41361 10.7647C3.52708 9.75449 4.32437 8.9572 5.33457 8.84373C5.45572 8.83012 5.59973 8.83012 5.88776 8.83012H7.52797C7.89794 8.83012 8.23794 8.62669 8.41284 8.30068L10.8031 3.8453C11.3416 2.84164 12.6189 2.50622 13.581 3.11584C14.1318 3.46483 14.4336 4.09882 14.3571 4.74636L13.8751 8.83012H18.3332C19.4298 8.83012 19.978 8.83012 20.3677 9.05392C20.7097 9.2503 20.9719 9.56041 21.1087 9.93024C21.2647 10.3517 21.1736 10.8923 20.9914 11.9736L20.0285 17.6887C19.8545 18.721 19.7676 19.2372 19.5093 19.6245C19.2817 19.9659 18.9623 20.236 18.5878 20.4037C18.163 20.594 17.6396 20.594 16.5927 20.594H6.88421C5.66463 20.594 5.05483 20.594 4.58901 20.3567C4.17926 20.1479 3.84613 19.8148 3.63735 19.405C3.4 18.9392 3.4 18.3294 3.4 17.1098V11.3179Z" fill="#F04142"/>
<path d="M6.87144 5.82715V21.3947" stroke="#F8F8F8" stroke-width="1.2"/>
</svg>
